<svg width="68" height="82" viewBox="0 0 68 82" fill="none" xmlns="http://www.w3.org/2000/svg">
<g filter="url(#filter0_d)">
<path d="M21.0739 71.1C21.0739 70.1387 21.2886 69.28 21.7179 68.524C22.1566 67.7587 22.7492 67.166 23.4959 66.746C24.2519 66.3167 25.0966 66.102 26.0299 66.102C27.1219 66.102 28.0786 66.382 28.8999 66.942C29.7212 67.502 30.2952 68.2767 30.6219 69.266H28.3679C28.1439 68.7993 27.8266 68.4493 27.4159 68.216C27.0146 67.9827 26.5479 67.866 26.0159 67.866C25.4466 67.866 24.9379 68.0013 24.4899 68.272C24.0512 68.5333 23.7059 68.9067 23.4539 69.392C23.2112 69.8773 23.0899 70.4467 23.0899 71.1C23.0899 71.744 23.2112 72.3133 23.4539 72.808C23.7059 73.2933 24.0512 73.6713 24.4899 73.942C24.9379 74.2033 25.4466 74.334 26.0159 74.334C26.5479 74.334 27.0146 74.2173 27.4159 73.984C27.8266 73.7413 28.1439 73.3867 28.3679 72.92H30.6219C30.2952 73.9187 29.7212 74.698 28.8999 75.258C28.0879 75.8087 27.1312 76.084 26.0299 76.084C25.0966 76.084 24.2519 75.874 23.4959 75.454C22.7492 75.0247 22.1566 74.432 21.7179 73.676C21.2886 72.92 21.0739 72.0613 21.0739 71.1ZM35.67 76.098C34.9887 76.098 34.3727 75.9813 33.822 75.748C33.2807 75.5147 32.8513 75.1787 32.534 74.74C32.2167 74.3013 32.0533 73.7833 32.044 73.186H34.144C34.172 73.5873 34.312 73.9047 34.564 74.138C34.8253 74.3713 35.18 74.488 35.628 74.488C36.0853 74.488 36.4447 74.3807 36.706 74.166C36.9673 73.942 37.098 73.6527 37.098 73.298C37.098 73.0087 37.0093 72.7707 36.832 72.584C36.6547 72.3973 36.4307 72.2527 36.16 72.15C35.8987 72.038 35.5347 71.9167 35.068 71.786C34.4333 71.5993 33.9153 71.4173 33.514 71.24C33.122 71.0533 32.7813 70.778 32.492 70.414C32.212 70.0407 32.072 69.546 32.072 68.93C32.072 68.3513 32.2167 67.8473 32.506 67.418C32.7953 66.9887 33.2013 66.662 33.724 66.438C34.2467 66.2047 34.844 66.088 35.516 66.088C36.524 66.088 37.3407 66.3353 37.966 66.83C38.6007 67.3153 38.9507 67.9967 39.016 68.874H36.86C36.8413 68.538 36.6967 68.2627 36.426 68.048C36.1647 67.824 35.8147 67.712 35.376 67.712C34.9933 67.712 34.6853 67.81 34.452 68.006C34.228 68.202 34.116 68.4867 34.116 68.86C34.116 69.1213 34.2 69.3407 34.368 69.518C34.5453 69.686 34.76 69.826 35.012 69.938C35.2733 70.0407 35.6373 70.162 36.104 70.302C36.7387 70.4887 37.2567 70.6753 37.658 70.862C38.0593 71.0487 38.4047 71.3287 38.694 71.702C38.9833 72.0753 39.128 72.5653 39.128 73.172C39.128 73.6947 38.9927 74.18 38.722 74.628C38.4513 75.076 38.0547 75.4353 37.532 75.706C37.0093 75.9673 36.3887 76.098 35.67 76.098ZM44.2012 76.098C43.5199 76.098 42.9039 75.9813 42.3532 75.748C41.8119 75.5147 41.3826 75.1787 41.0652 74.74C40.7479 74.3013 40.5846 73.7833 40.5752 73.186H42.6752C42.7032 73.5873 42.8432 73.9047 43.0952 74.138C43.3566 74.3713 43.7112 74.488 44.1592 74.488C44.6166 74.488 44.9759 74.3807 45.2372 74.166C45.4986 73.942 45.6292 73.6527 45.6292 73.298C45.6292 73.0087 45.5406 72.7707 45.3632 72.584C45.1859 72.3973 44.9619 72.2527 44.6912 72.15C44.4299 72.038 44.0659 71.9167 43.5992 71.786C42.9646 71.5993 42.4466 71.4173 42.0452 71.24C41.6532 71.0533 41.3126 70.778 41.0232 70.414C40.7432 70.0407 40.6032 69.546 40.6032 68.93C40.6032 68.3513 40.7479 67.8473 41.0372 67.418C41.3266 66.9887 41.7326 66.662 42.2552 66.438C42.7779 66.2047 43.3752 66.088 44.0472 66.088C45.0552 66.088 45.8719 66.3353 46.4972 66.83C47.1319 67.3153 47.4819 67.9967 47.5472 68.874H45.3912C45.3726 68.538 45.2279 68.2627 44.9572 68.048C44.6959 67.824 44.3459 67.712 43.9072 67.712C43.5246 67.712 43.2166 67.81 42.9832 68.006C42.7592 68.202 42.6472 68.4867 42.6472 68.86C42.6472 69.1213 42.7312 69.3407 42.8992 69.518C43.0766 69.686 43.2912 69.826 43.5432 69.938C43.8046 70.0407 44.1686 70.162 44.6352 70.302C45.2699 70.4887 45.7879 70.6753 46.1892 70.862C46.5906 71.0487 46.9359 71.3287 47.2252 71.702C47.5146 72.0753 47.6592 72.5653 47.6592 73.172C47.6592 73.6947 47.5239 74.18 47.2532 74.628C46.9826 75.076 46.5859 75.4353 46.0632 75.706C45.5406 75.9673 44.9199 76.098 44.2012 76.098Z" fill="black"/>
</g>
<g filter="url(#filter1_d)">
<path fill-rule="evenodd" clip-rule="evenodd" d="M58.7059 54.5789L34 61L9.29412 54.5789L4 0H64C62.2353 18.1909 60.4706 36.3881 58.7059 54.5789ZM60.1466 3.21053H7.8534L12.596 52.0958L34 57.6641L55.404 52.0958L60.1466 3.21053ZM19.5308 35.3158H26.5896L26.7619 39.3289L34 41.5738L41.2381 39.3289L41.7619 32.1053H26.2381L25.8796 25.6842H42.1204L42.6443 19.2632H18.2969L17.7661 12.8421H50.0616L49.1792 25.6842L47.9384 44.1447L34 48.3209L20.0616 44.1447L19.5308 35.3158Z" fill="black"/>
</g>
<defs>
<filter id="filter0_d" x="18.0739" y="65.088" width="32.5853" height="16.01" filterUnits="userSpaceOnUse" color-interpolation-filters="sRGB">
<feFlood flood-opacity="0" result="BackgroundImageFix"/>
<feColorMatrix in="SourceAlpha" type="matrix" values="0 0 0 0 0 0 0 0 0 0 0 0 0 0 0 0 0 0 127 0"/>
<feOffset dy="2"/>
<feGaussianBlur stdDeviation="1.5"/>
<feColorMatrix type="matrix" values="0 0 0 0 0 0 0 0 0 0 0 0 0 0 0 0 0 0 0.25 0"/>
<feBlend mode="normal" in2="BackgroundImageFix" result="effect1_dropShadow"/>
<feBlend mode="normal" in="SourceGraphic" in2="effect1_dropShadow" result="shape"/>
</filter>
<filter id="filter1_d" x="0" y="0" width="68" height="69" filterUnits="userSpaceOnUse" color-interpolation-filters="sRGB">
<feFlood flood-opacity="0" result="BackgroundImageFix"/>
<feColorMatrix in="SourceAlpha" type="matrix" values="0 0 0 0 0 0 0 0 0 0 0 0 0 0 0 0 0 0 127 0"/>
<feOffset dy="4"/>
<feGaussianBlur stdDeviation="2"/>
<feColorMatrix type="matrix" values="0 0 0 0 0 0 0 0 0 0 0 0 0 0 0 0 0 0 0.25 0"/>
<feBlend mode="normal" in2="BackgroundImageFix" result="effect1_dropShadow"/>
<feBlend mode="normal" in="SourceGraphic" in2="effect1_dropShadow" result="shape"/>
</filter>
</defs>
</svg>
