<svg width="74" height="76" viewBox="0 0 74 76" fill="none" xmlns="http://www.w3.org/2000/svg">
<g filter="url(#filter0_d)">
<path d="M13.4095 63.718V68.128C13.4095 68.74 13.2325 69.217 12.8785 69.559C12.5245 69.895 12.0505 70.063 11.4565 70.063C10.8565 70.063 10.3705 69.889 9.99849 69.541C9.63249 69.193 9.44949 68.707 9.44949 68.083H10.7095C10.7155 68.353 10.7785 68.563 10.8985 68.713C11.0245 68.863 11.2045 68.938 11.4385 68.938C11.6665 68.938 11.8405 68.866 11.9605 68.722C12.0805 68.578 12.1405 68.38 12.1405 68.128V63.718H13.4095ZM18.7313 68.803H16.2293L15.8153 70H14.4923L16.7513 63.709H18.2183L20.4773 70H19.1453L18.7313 68.803ZM18.3893 67.795L17.4803 65.167L16.5713 67.795H18.3893ZM26.9647 63.718L24.6607 70H23.1307L20.8267 63.718H22.1767L23.9047 68.713L25.6237 63.718H26.9647ZM31.5721 68.803H29.0701L28.6561 70H27.3331L29.5921 63.709H31.0591L33.3181 70H31.9861L31.5721 68.803ZM31.2301 67.795L30.3211 65.167L29.4121 67.795H31.2301ZM36.3315 70.063C35.8935 70.063 35.4975 69.988 35.1435 69.838C34.7955 69.688 34.5195 69.472 34.3155 69.19C34.1115 68.908 34.0065 68.575 34.0005 68.191H35.3505C35.3685 68.449 35.4585 68.653 35.6205 68.803C35.7885 68.953 36.0165 69.028 36.3045 69.028C36.5985 69.028 36.8295 68.959 36.9975 68.821C37.1655 68.677 37.2495 68.491 37.2495 68.263C37.2495 68.077 37.1925 67.924 37.0785 67.804C36.9645 67.684 36.8205 67.591 36.6465 67.525C36.4785 67.453 36.2445 67.375 35.9445 67.291C35.5365 67.171 35.2035 67.054 34.9455 66.94C34.6935 66.82 34.4745 66.643 34.2885 66.409C34.1085 66.169 34.0185 65.851 34.0185 65.455C34.0185 65.083 34.1115 64.759 34.2975 64.483C34.4835 64.207 34.7445 63.997 35.0805 63.853C35.4165 63.703 35.8005 63.628 36.2325 63.628C36.8805 63.628 37.4055 63.787 37.8075 64.105C38.2155 64.417 38.4405 64.855 38.4825 65.419H37.0965C37.0845 65.203 36.9915 65.026 36.8175 64.888C36.6495 64.744 36.4245 64.672 36.1425 64.672C35.8965 64.672 35.6985 64.735 35.5485 64.861C35.4045 64.987 35.3325 65.17 35.3325 65.41C35.3325 65.578 35.3865 65.719 35.4945 65.833C35.6085 65.941 35.7465 66.031 35.9085 66.103C36.0765 66.169 36.3105 66.247 36.6105 66.337C37.0185 66.457 37.3515 66.577 37.6095 66.697C37.8675 66.817 38.0895 66.997 38.2755 67.237C38.4615 67.477 38.5545 67.792 38.5545 68.182C38.5545 68.518 38.4675 68.83 38.2935 69.118C38.1195 69.406 37.8645 69.637 37.5285 69.811C37.1925 69.979 36.7935 70.063 36.3315 70.063ZM39.3409 66.85C39.3409 66.232 39.4789 65.68 39.7549 65.194C40.0369 64.702 40.4179 64.321 40.8979 64.051C41.3839 63.775 41.9269 63.637 42.5269 63.637C43.2289 63.637 43.8439 63.817 44.3719 64.177C44.8999 64.537 45.2689 65.035 45.4789 65.671H44.0299C43.8859 65.371 43.6819 65.146 43.4179 64.996C43.1599 64.846 42.8599 64.771 42.5179 64.771C42.1519 64.771 41.8249 64.858 41.5369 65.032C41.2549 65.2 41.0329 65.44 40.8709 65.752C40.7149 66.064 40.6369 66.43 40.6369 66.85C40.6369 67.264 40.7149 67.63 40.8709 67.948C41.0329 68.26 41.2549 68.503 41.5369 68.677C41.8249 68.845 42.1519 68.929 42.5179 68.929C42.8599 68.929 43.1599 68.854 43.4179 68.704C43.6819 68.548 43.8859 68.32 44.0299 68.02H45.4789C45.2689 68.662 44.8999 69.163 44.3719 69.523C43.8499 69.877 43.2349 70.054 42.5269 70.054C41.9269 70.054 41.3839 69.919 40.8979 69.649C40.4179 69.373 40.0369 68.992 39.7549 68.506C39.4789 68.02 39.3409 67.468 39.3409 66.85ZM49.7951 70L48.4091 67.552H47.8151V70H46.5551V63.718H48.9131C49.3991 63.718 49.8131 63.805 50.1551 63.979C50.4971 64.147 50.7521 64.378 50.9201 64.672C51.0941 64.96 51.1811 65.284 51.1811 65.644C51.1811 66.058 51.0611 66.433 50.8211 66.769C50.5811 67.099 50.2241 67.327 49.7501 67.453L51.2531 70H49.7951ZM47.8151 66.607H48.8681C49.2101 66.607 49.4651 66.526 49.6331 66.364C49.8011 66.196 49.8851 65.965 49.8851 65.671C49.8851 65.383 49.8011 65.161 49.6331 65.005C49.4651 64.843 49.2101 64.762 48.8681 64.762H47.8151V66.607ZM53.5807 63.718V70H52.3207V63.718H53.5807ZM59.4066 65.662C59.4066 65.998 59.3256 66.313 59.1636 66.607C59.0076 66.901 58.7586 67.138 58.4166 67.318C58.0806 67.498 57.6546 67.588 57.1386 67.588H56.0856V70H54.8256V63.718H57.1386C57.6246 63.718 58.0386 63.802 58.3806 63.97C58.7226 64.138 58.9776 64.369 59.1456 64.663C59.3196 64.957 59.4066 65.29 59.4066 65.662ZM57.0846 66.571C57.4326 66.571 57.6906 66.493 57.8586 66.337C58.0266 66.175 58.1106 65.95 58.1106 65.662C58.1106 65.05 57.7686 64.744 57.0846 64.744H56.0856V66.571H57.0846ZM64.5762 63.718V64.735H62.9022V70H61.6422V64.735H59.9682V63.718H64.5762Z" fill="black"/>
</g>
<g filter="url(#filter1_d)">
<path d="M8.19252 0C5.89676 0 4 1.75307 4 3.87491V57.1251C4 59.2469 5.89676 61 8.19252 61H65.8075C68.1032 61 70 59.2526 70 57.1251V3.87491C70 1.75307 68.1094 0 65.8075 0H8.19252ZM8.19252 2.90476H65.8075C66.3906 2.90476 66.8571 3.33594 66.8571 3.87491V57.1251C66.8571 57.6641 66.3906 58.0952 65.8075 58.0952H8.19252C7.60938 58.0952 7.14286 57.6641 7.14286 57.1251V3.87491C7.14286 3.33594 7.60938 2.90476 8.19252 2.90476ZM33.8571 27.5952V45.8578C33.8571 48.6604 32.7093 49.381 30.7143 49.381C28.6272 49.381 27.1786 48.1782 26.221 46.618L21.2857 49.381C22.716 52.1779 26.221 55.1905 31.0826 55.1905C36.4598 55.1905 40.1429 52.5467 40.1429 46.7428V27.5952H33.8571ZM53.4263 27.5952C48.0737 27.5952 44.6423 30.761 44.6423 34.9196C44.6423 39.4299 47.5212 41.5631 51.8488 43.2651L53.3465 43.8608C56.0781 44.9671 57.4286 45.6422 57.4286 47.5428C57.4286 49.1257 56.1272 50.2717 53.6412 50.2717C50.6825 50.2717 49.2829 48.4165 48 46.4762L43.2857 49.381C45.0474 52.5978 48.2087 55.1905 53.7762 55.1905C59.4727 55.1905 63.7143 52.4559 63.7143 47.469C63.7143 42.8396 60.8415 40.7801 55.7405 38.7604L54.2427 38.1704C51.6708 37.1378 50.5536 36.4684 50.5536 34.8061C50.5536 33.4615 51.6708 32.4289 53.4263 32.4289C55.1512 32.4289 56.2561 33.1041 57.2813 34.8061L61.9526 32.0375C59.9821 28.8207 57.2383 27.5952 53.4263 27.5952Z" fill="black"/>
</g>
<defs>
<filter id="filter0_d" x="6.44946" y="62.6281" width="61.1267" height="12.435" filterUnits="userSpaceOnUse" color-interpolation-filters="sRGB">
<feFlood flood-opacity="0" result="BackgroundImageFix"/>
<feColorMatrix in="SourceAlpha" type="matrix" values="0 0 0 0 0 0 0 0 0 0 0 0 0 0 0 0 0 0 127 0"/>
<feOffset dy="2"/>
<feGaussianBlur stdDeviation="1.5"/>
<feColorMatrix type="matrix" values="0 0 0 0 0 0 0 0 0 0 0 0 0 0 0 0 0 0 0.25 0"/>
<feBlend mode="normal" in2="BackgroundImageFix" result="effect1_dropShadow"/>
<feBlend mode="normal" in="SourceGraphic" in2="effect1_dropShadow" result="shape"/>
</filter>
<filter id="filter1_d" x="0" y="0" width="74" height="69" filterUnits="userSpaceOnUse" color-interpolation-filters="sRGB">
<feFlood flood-opacity="0" result="BackgroundImageFix"/>
<feColorMatrix in="SourceAlpha" type="matrix" values="0 0 0 0 0 0 0 0 0 0 0 0 0 0 0 0 0 0 127 0"/>
<feOffset dy="4"/>
<feGaussianBlur stdDeviation="2"/>
<feColorMatrix type="matrix" values="0 0 0 0 0 0 0 0 0 0 0 0 0 0 0 0 0 0 0.25 0"/>
<feBlend mode="normal" in2="BackgroundImageFix" result="effect1_dropShadow"/>
<feBlend mode="normal" in="SourceGraphic" in2="effect1_dropShadow" result="shape"/>
</filter>
</defs>
</svg>
