<svg width="52" height="53" viewBox="0 0 52 53" fill="none" xmlns="http://www.w3.org/2000/svg">
<path d="M8.05531 50V44.064H10.6233C11.0393 44.064 11.3833 44.1387 11.6553 44.288C11.9326 44.4373 12.1486 44.6453 12.3033 44.912C12.4633 45.1787 12.5753 45.4933 12.6393 45.856C12.7033 46.2133 12.7353 46.608 12.7353 47.04C12.7353 48.0587 12.5593 48.808 12.2073 49.288C11.8606 49.7627 11.3326 50 10.6233 50H8.05531ZM9.43931 48.76H10.4873C10.8126 48.76 11.0393 48.6213 11.1673 48.344C11.2953 48.0613 11.3593 47.6267 11.3593 47.04C11.3593 46.5493 11.3246 46.1813 11.2553 45.936C11.186 45.6853 11.0873 45.5173 10.9593 45.432C10.8313 45.3467 10.674 45.304 10.4873 45.304H9.43931V48.76ZM15.0439 50.048C14.9105 50.048 14.7585 50.0347 14.5879 50.008C14.4172 49.9813 14.2519 49.9253 14.0919 49.84C13.9319 49.7493 13.7985 49.6133 13.6919 49.432C13.5852 49.2453 13.5319 48.9947 13.5319 48.68V45.488C13.5319 45.1147 13.6039 44.8267 13.7479 44.624C13.8972 44.416 14.0812 44.272 14.2999 44.192C14.5185 44.1067 14.7372 44.064 14.9559 44.064C15.5905 44.0693 16.1079 44.0827 16.5079 44.104C16.9079 44.1253 17.2545 44.1493 17.5479 44.176V45.344H15.3719C15.0679 45.344 14.9159 45.4827 14.9159 45.76V46.416L17.1559 46.496V47.584L14.9159 47.656V48.28C14.9159 48.456 14.9559 48.5787 15.0359 48.648C15.1159 48.7173 15.2145 48.752 15.3319 48.752H17.5479V49.912C17.3132 49.9387 17.0519 49.9627 16.7639 49.984C16.4759 50.0053 16.1825 50.0187 15.8839 50.024C15.5852 50.0347 15.3052 50.0427 15.0439 50.048ZM19.7526 50L17.9446 44.064H19.3766L20.6246 48.504L21.8726 44.064H23.2886L21.4806 50H19.7526ZM27.3634 50C26.8568 50 26.4834 49.8853 26.2434 49.656C26.0034 49.4267 25.8834 49.048 25.8834 48.52V44.064H27.2674V48.288C27.2674 48.4587 27.3074 48.5813 27.3874 48.656C27.4728 48.7253 27.5874 48.76 27.7314 48.76H29.5314V50H27.3634ZM31.6845 50.048C31.5512 50.048 31.3992 50.0347 31.2285 50.008C31.0578 49.9813 30.8925 49.9253 30.7325 49.84C30.5725 49.7493 30.4392 49.6133 30.3325 49.432C30.2258 49.2453 30.1725 48.9947 30.1725 48.68V45.488C30.1725 45.1147 30.2445 44.8267 30.3885 44.624C30.5378 44.416 30.7218 44.272 30.9405 44.192C31.1592 44.1067 31.3778 44.064 31.5965 44.064C32.2312 44.0693 32.7485 44.0827 33.1485 44.104C33.5485 44.1253 33.8952 44.1493 34.1885 44.176V45.344H32.0125C31.7085 45.344 31.5565 45.4827 31.5565 45.76V46.416L33.7965 46.496V47.584L31.5565 47.656V48.28C31.5565 48.456 31.5965 48.5787 31.6765 48.648C31.7565 48.7173 31.8552 48.752 31.9725 48.752H34.1885V49.912C33.9538 49.9387 33.6925 49.9627 33.4045 49.984C33.1165 50.0053 32.8232 50.0187 32.5245 50.024C32.2258 50.0347 31.9458 50.0427 31.6845 50.048ZM34.8172 50L35.5132 44.064H36.8252L38.1132 48.408L39.3932 44.064H40.6892L41.3932 50H40.0652L39.6412 46.48L38.7452 50H37.4492L36.5532 46.536L36.1532 50H34.8172Z" fill="#DEDEDE"/>
<rect x="2.08334" y="2.20001" width="47.8333" height="28" stroke="#DBDBDB" stroke-width="2"/>
<path d="M52 32.3V0H0V32.3H19.9333V35.7H13.8667V37.4H39.8667V35.7H32.0667V32.3H52ZM30.3333 35.7H21.6667V32.3H30.3333V35.7ZM1.73333 30.6V1.7H50.2667V30.6H1.73333Z" fill="#DBDBDB"/>
<path d="M12.524 14.828L7.892 11.828V10.604L12.524 7.60401V9.20001L9.344 11.192V11.24L12.524 13.232V14.828ZM18.4353 15.344C17.6833 15.344 17.1153 15.124 16.7313 14.684C16.3553 14.236 16.1673 13.632 16.1673 12.872V8.18001H14.2953V6.78801H17.9313V12.944C17.9313 13.128 17.9553 13.284 18.0033 13.412C18.0593 13.532 18.1313 13.632 18.2193 13.712C18.3153 13.784 18.4193 13.836 18.5313 13.868C18.6513 13.9 18.7753 13.916 18.9033 13.916C19.0393 13.916 19.1793 13.904 19.3233 13.88C19.4753 13.848 19.6433 13.796 19.8273 13.724L20.2233 15.02C20.0633 15.068 19.9153 15.112 19.7793 15.152C19.6433 15.192 19.5073 15.224 19.3713 15.248C19.2353 15.28 19.0913 15.304 18.9393 15.32C18.7873 15.336 18.6193 15.344 18.4353 15.344ZM22.0666 14.828V13.232L25.2466 11.24V11.192L22.0666 9.20001V7.60401L26.6986 10.604V11.828L22.0666 14.828Z" fill="#DBDBDB"/>
<path d="M23.3573 24.828L18.7253 21.828V20.604L23.3573 17.604V19.2L20.1773 21.192V21.24L23.3573 23.232V24.828ZM23.6167 27.12L27.5647 16.68H29.0407L25.0927 27.12H23.6167ZM31.196 25.344C30.82 25.344 30.476 25.272 30.164 25.128C29.86 24.984 29.596 24.78 29.372 24.516C29.156 24.244 28.988 23.916 28.868 23.532C28.748 23.148 28.688 22.712 28.688 22.224C28.688 21.736 28.76 21.3 28.904 20.916C29.048 20.532 29.236 20.208 29.468 19.944C29.708 19.672 29.98 19.464 30.284 19.32C30.588 19.176 30.904 19.104 31.232 19.104C31.568 19.104 31.852 19.16 32.084 19.272C32.316 19.376 32.532 19.532 32.732 19.74H32.78L32.696 18.816V16.788H34.46V25.2H33.02L32.888 24.588H32.852C32.628 24.804 32.372 24.984 32.084 25.128C31.796 25.272 31.5 25.344 31.196 25.344ZM31.652 23.904C31.852 23.904 32.036 23.864 32.204 23.784C32.372 23.696 32.536 23.552 32.696 23.352V20.94C32.536 20.796 32.372 20.696 32.204 20.64C32.044 20.576 31.876 20.544 31.7 20.544C31.372 20.544 31.088 20.68 30.848 20.952C30.616 21.224 30.5 21.64 30.5 22.2C30.5 22.792 30.6 23.224 30.8 23.496C31 23.768 31.284 23.904 31.652 23.904ZM36.4953 24.828V23.232L39.6753 21.24V21.192L36.4953 19.2V17.604L41.1273 20.604V21.828L36.4953 24.828Z" fill="#DBDBDB"/>
</svg>
