<svg width="74" height="82" viewBox="0 0 74 82" fill="none" xmlns="http://www.w3.org/2000/svg">
<path d="M31.5905 69.252C31.5905 69.7747 31.4645 70.2647 31.2125 70.722C30.9699 71.1793 30.5825 71.548 30.0505 71.828C29.5279 72.108 28.8652 72.248 28.0625 72.248H26.4245V76H24.4645V66.228H28.0625C28.8185 66.228 29.4625 66.3587 29.9945 66.62C30.5265 66.8813 30.9232 67.2407 31.1845 67.698C31.4552 68.1553 31.5905 68.6733 31.5905 69.252ZM27.9785 70.666C28.5199 70.666 28.9212 70.5447 29.1825 70.302C29.4439 70.05 29.5745 69.7 29.5745 69.252C29.5745 68.3 29.0425 67.824 27.9785 67.824H26.4245V70.666H27.9785ZM41.0881 66.228V76H39.1281V71.842H34.9421V76H32.9821V66.228H34.9421V70.246H39.1281V66.228H41.0881ZM50.1433 69.252C50.1433 69.7747 50.0173 70.2647 49.7653 70.722C49.5226 71.1793 49.1353 71.548 48.6033 71.828C48.0806 72.108 47.4179 72.248 46.6153 72.248H44.9773V76H43.0173V66.228H46.6153C47.3713 66.228 48.0153 66.3587 48.5473 66.62C49.0793 66.8813 49.4759 67.2407 49.7373 67.698C50.0079 68.1553 50.1433 68.6733 50.1433 69.252ZM46.5313 70.666C47.0726 70.666 47.4739 70.5447 47.7353 70.302C47.9966 70.05 48.1273 69.7 48.1273 69.252C48.1273 68.3 47.5953 67.824 46.5313 67.824H44.9773V70.666H46.5313Z" fill="black"/>
<g filter="url(#filter0_d)">
<path d="M65.7883 0H8.2158C5.88956 0 4 1.74275 4 3.89289V57.1109C4 59.2535 5.88548 61 8.2158 61H65.7883C68.1145 61 70 59.2535 70 57.1109V3.89289C70 1.74275 68.1145 0 65.7883 0ZM24.0138 31.3846C22.3896 32.7991 19.9817 33.4329 17.1698 33.4329C16.5454 33.4329 15.9822 33.4027 15.5455 33.3461V40.3096H10.8277V21.1016C12.2969 20.8715 14.3579 20.698 17.2677 20.698C20.2021 20.698 22.2998 21.2223 23.7037 22.2597C25.0505 23.2442 25.9565 24.8587 25.9565 26.7637C25.9565 28.6686 25.2668 30.2869 24.0138 31.3846ZM46.3703 40.3096H41.6198V32.1616H33.78V40.3096H28.9969V20.8451H33.78V28.3253H41.6198V20.8451H46.3703V40.3096ZM63.7273 31.3846C62.1071 32.7991 59.6992 33.4329 56.8833 33.4329C56.2629 33.4329 55.6956 33.4027 55.259 33.3461V40.3096H50.5453V21.1016C52.0104 20.8715 54.0714 20.698 56.9812 20.698C59.9196 20.698 62.0091 21.2223 63.4171 22.2597C64.7639 23.2442 65.6699 24.8587 65.6699 26.7637C65.6658 28.6686 64.9802 30.2869 63.7273 31.3846Z" fill="#030104"/>
</g>
<defs>
<filter id="filter0_d" x="0" y="0" width="74" height="69" filterUnits="userSpaceOnUse" color-interpolation-filters="sRGB">
<feFlood flood-opacity="0" result="BackgroundImageFix"/>
<feColorMatrix in="SourceAlpha" type="matrix" values="0 0 0 0 0 0 0 0 0 0 0 0 0 0 0 0 0 0 127 0"/>
<feOffset dy="4"/>
<feGaussianBlur stdDeviation="2"/>
<feColorMatrix type="matrix" values="0 0 0 0 0 0 0 0 0 0 0 0 0 0 0 0 0 0 0.25 0"/>
<feBlend mode="normal" in2="BackgroundImageFix" result="effect1_dropShadow"/>
<feBlend mode="normal" in="SourceGraphic" in2="effect1_dropShadow" result="shape"/>
</filter>
</defs>
</svg>
