<svg width="77" height="82" viewBox="0 0 77 82" fill="none" xmlns="http://www.w3.org/2000/svg">
<g filter="url(#filter0_d)">
<path d="M24.0454 76.098C23.3641 76.098 22.7481 75.9813 22.1974 75.748C21.6561 75.5147 21.2267 75.1787 20.9094 74.74C20.5921 74.3013 20.4287 73.7833 20.4194 73.186H22.5194C22.5474 73.5873 22.6874 73.9047 22.9394 74.138C23.2007 74.3713 23.5554 74.488 24.0034 74.488C24.4607 74.488 24.8201 74.3807 25.0814 74.166C25.3427 73.942 25.4734 73.6527 25.4734 73.298C25.4734 73.0087 25.3847 72.7707 25.2074 72.584C25.0301 72.3973 24.8061 72.2527 24.5354 72.15C24.2741 72.038 23.9101 71.9167 23.4434 71.786C22.8087 71.5993 22.2907 71.4173 21.8894 71.24C21.4974 71.0533 21.1567 70.778 20.8674 70.414C20.5874 70.0407 20.4474 69.546 20.4474 68.93C20.4474 68.3513 20.5921 67.8473 20.8814 67.418C21.1707 66.9887 21.5767 66.662 22.0994 66.438C22.6221 66.2047 23.2194 66.088 23.8914 66.088C24.8994 66.088 25.7161 66.3353 26.3414 66.83C26.9761 67.3153 27.3261 67.9967 27.3914 68.874H25.2354C25.2167 68.538 25.0721 68.2627 24.8014 68.048C24.5401 67.824 24.1901 67.712 23.7514 67.712C23.3687 67.712 23.0607 67.81 22.8274 68.006C22.6034 68.202 22.4914 68.4867 22.4914 68.86C22.4914 69.1213 22.5754 69.3407 22.7434 69.518C22.9207 69.686 23.1354 69.826 23.3874 69.938C23.6487 70.0407 24.0127 70.162 24.4794 70.302C25.1141 70.4887 25.6321 70.6753 26.0334 70.862C26.4347 71.0487 26.7801 71.3287 27.0694 71.702C27.3587 72.0753 27.5034 72.5653 27.5034 73.172C27.5034 73.6947 27.3681 74.18 27.0974 74.628C26.8267 75.076 26.4301 75.4353 25.9074 75.706C25.3847 75.9673 24.7641 76.098 24.0454 76.098ZM35.1947 74.138H31.3027L30.6587 76H28.6007L32.1147 66.214H34.3967L37.9107 76H35.8387L35.1947 74.138ZM34.6627 72.57L33.2487 68.482L31.8347 72.57H34.6627ZM42.5981 76.098C41.9168 76.098 41.3008 75.9813 40.7501 75.748C40.2088 75.5147 39.7795 75.1787 39.4621 74.74C39.1448 74.3013 38.9815 73.7833 38.9721 73.186H41.0721C41.1001 73.5873 41.2401 73.9047 41.4921 74.138C41.7535 74.3713 42.1081 74.488 42.5561 74.488C43.0135 74.488 43.3728 74.3807 43.6341 74.166C43.8955 73.942 44.0261 73.6527 44.0261 73.298C44.0261 73.0087 43.9375 72.7707 43.7601 72.584C43.5828 72.3973 43.3588 72.2527 43.0881 72.15C42.8268 72.038 42.4628 71.9167 41.9961 71.786C41.3615 71.5993 40.8435 71.4173 40.4421 71.24C40.0501 71.0533 39.7095 70.778 39.4201 70.414C39.1401 70.0407 39.0001 69.546 39.0001 68.93C39.0001 68.3513 39.1448 67.8473 39.4341 67.418C39.7235 66.9887 40.1295 66.662 40.6521 66.438C41.1748 66.2047 41.7721 66.088 42.4441 66.088C43.4521 66.088 44.2688 66.3353 44.8941 66.83C45.5288 67.3153 45.8788 67.9967 45.9441 68.874H43.7881C43.7695 68.538 43.6248 68.2627 43.3541 68.048C43.0928 67.824 42.7428 67.712 42.3041 67.712C41.9215 67.712 41.6135 67.81 41.3801 68.006C41.1561 68.202 41.0441 68.4867 41.0441 68.86C41.0441 69.1213 41.1281 69.3407 41.2961 69.518C41.4735 69.686 41.6881 69.826 41.9401 69.938C42.2015 70.0407 42.5655 70.162 43.0321 70.302C43.6668 70.4887 44.1848 70.6753 44.5861 70.862C44.9875 71.0487 45.3328 71.3287 45.6221 71.702C45.9115 72.0753 46.0561 72.5653 46.0561 73.172C46.0561 73.6947 45.9208 74.18 45.6501 74.628C45.3795 75.076 44.9828 75.4353 44.4601 75.706C43.9375 75.9673 43.3168 76.098 42.5981 76.098ZM51.1294 76.098C50.4481 76.098 49.8321 75.9813 49.2814 75.748C48.7401 75.5147 48.3107 75.1787 47.9934 74.74C47.6761 74.3013 47.5127 73.7833 47.5034 73.186H49.6034C49.6314 73.5873 49.7714 73.9047 50.0234 74.138C50.2847 74.3713 50.6394 74.488 51.0874 74.488C51.5447 74.488 51.9041 74.3807 52.1654 74.166C52.4267 73.942 52.5574 73.6527 52.5574 73.298C52.5574 73.0087 52.4687 72.7707 52.2914 72.584C52.1141 72.3973 51.8901 72.2527 51.6194 72.15C51.3581 72.038 50.9941 71.9167 50.5274 71.786C49.8927 71.5993 49.3747 71.4173 48.9734 71.24C48.5814 71.0533 48.2407 70.778 47.9514 70.414C47.6714 70.0407 47.5314 69.546 47.5314 68.93C47.5314 68.3513 47.6761 67.8473 47.9654 67.418C48.2547 66.9887 48.6607 66.662 49.1834 66.438C49.7061 66.2047 50.3034 66.088 50.9754 66.088C51.9834 66.088 52.8001 66.3353 53.4254 66.83C54.0601 67.3153 54.4101 67.9967 54.4754 68.874H52.3194C52.3007 68.538 52.1561 68.2627 51.8854 68.048C51.6241 67.824 51.2741 67.712 50.8354 67.712C50.4527 67.712 50.1447 67.81 49.9114 68.006C49.6874 68.202 49.5754 68.4867 49.5754 68.86C49.5754 69.1213 49.6594 69.3407 49.8274 69.518C50.0047 69.686 50.2194 69.826 50.4714 69.938C50.7327 70.0407 51.0967 70.162 51.5634 70.302C52.1981 70.4887 52.7161 70.6753 53.1174 70.862C53.5187 71.0487 53.8641 71.3287 54.1534 71.702C54.4427 72.0753 54.5874 72.5653 54.5874 73.172C54.5874 73.6947 54.4521 74.18 54.1814 74.628C53.9107 75.076 53.5141 75.4353 52.9914 75.706C52.4687 75.9673 51.8481 76.098 51.1294 76.098Z" fill="black"/>
</g>
<g filter="url(#filter1_d)">
<path d="M36.5383 0.0395967C33.2876 -0.167471 29.6328 0.433843 26.0576 1.93188C20.3764 4.31098 14.2317 8.05296 9.8132 12.9278C4.56438 18.7298 3.72244 23.7792 4.06745 25.8918C5.29571 33.3845 14.0505 38.2724 17.5536 41.8868C17.3811 42.0006 17.2202 42.0986 17.0684 42.2013C15.3111 43.2312 8.79214 47.2773 7.12227 51.6302C5.23619 56.5661 7.43433 60.0989 8.87879 60.582C13.3847 62.0588 17.8437 59.4778 20.3209 55.1166C22.8004 50.7526 22.5018 45.0572 21.3586 42.4615C21.3471 42.4227 21.3252 42.3974 21.3137 42.3585C21.7668 42.0393 22.2282 41.7181 22.6928 41.3988C23.5876 40.7742 24.4606 40.2041 25.2265 39.7072C24.7941 41.0813 24.4824 42.739 24.3191 45.1292C24.1259 47.9275 25.1046 51.548 26.3766 52.9749C26.9378 53.5995 27.6157 53.6147 28.0343 53.6147C29.5224 53.6147 30.1912 52.1642 30.9319 50.4319C31.8473 48.3193 32.6569 45.8666 32.6569 45.8666C32.6569 45.8666 31.6463 52.5031 34.4179 52.5031C35.43 52.5031 36.4446 50.9655 36.8977 50.1771V50.1879C36.8977 50.1879 36.9144 50.1388 36.9696 50.0361C37.0777 49.8446 37.1313 49.7325 37.1313 49.7325V49.6945C37.5407 48.8673 38.4385 46.9728 39.7863 43.8442C41.5321 39.7994 43.2005 34.746 43.2005 34.746C43.3615 35.8564 43.5847 36.952 43.8699 38.0263C44.1712 39.2339 44.8104 40.5581 45.3164 41.8434C44.907 42.5041 44.6561 42.8845 44.6561 42.8845C44.6561 42.8956 44.6626 42.906 44.6695 42.9116C44.3452 43.4196 43.9776 43.9644 43.6003 44.5002C42.2203 46.4352 40.5797 48.6522 40.3658 49.2879C40.1059 50.0374 40.1723 50.5953 40.6668 51.0284C41.0325 51.3587 41.6842 51.4093 42.3605 51.3483C43.6002 51.2455 44.4732 50.8873 44.8942 50.6597C45.6693 50.3321 46.4014 49.8813 47.0685 49.315C48.4163 48.1435 49.2378 46.4634 49.1619 44.2508C49.1182 43.0293 48.7807 41.8052 48.3712 40.6614C48.4909 40.4588 48.6223 40.2436 48.7396 40.0271C50.8741 36.3515 52.5222 32.3169 52.5222 32.3169C52.6832 33.4274 52.9064 34.5229 53.1916 35.5973C53.4515 36.6272 53.9579 37.7591 54.4225 38.8667C52.4191 40.7878 51.1756 43.0155 50.7432 44.4785C49.9451 47.188 50.5742 48.4057 51.7495 48.686C52.2785 48.8137 53.0302 48.5245 53.5914 48.2469C54.424 47.9193 55.2077 47.4424 55.9184 46.8317C57.2663 45.6602 58.571 44.0211 58.4836 41.7946C58.4514 40.7897 58.2169 39.784 57.9041 38.8179C59.5969 37.9796 61.7939 37.5213 64.5977 37.9016C70.601 38.7289 71.7773 43.1557 71.5519 44.9991C71.3265 46.8452 70.0636 47.8764 69.6426 48.1818C69.2217 48.4872 69.0938 48.602 69.126 48.8324C69.1789 49.1628 69.3715 49.1487 69.728 49.071C70.2248 48.9683 72.8743 47.5707 72.994 44.1478C73.1664 39.8248 69.6461 35.0698 63.4072 35.1039H63.3982C61.2323 35.1055 59.097 35.6916 57.1538 36.8226C56.5167 35.3097 55.858 33.9857 55.7522 32.9947C55.6234 31.8371 55.4859 31.1508 55.6354 29.7794C55.7872 28.4053 56.4645 26.4563 56.453 26.3147C56.4415 26.1759 56.3014 25.4774 54.9121 25.4635C53.5229 25.4496 52.3233 25.7814 52.1853 26.2117C51.9392 27.0029 51.7481 27.8135 51.6147 28.6408C51.3663 30.1288 48.8339 35.4482 47.4009 38.2215C46.9271 37.1389 46.5291 36.1872 46.444 35.4238C46.3152 34.2661 46.1732 33.5799 46.3227 32.2085C46.4745 30.8343 47.1563 28.8854 47.1448 28.7438C47.1333 28.605 46.9932 27.9064 45.6039 27.8926C44.2147 27.8787 43.0129 28.2105 42.8726 28.6408C42.7323 29.0739 42.5804 30.0899 42.3021 31.0699C42.0214 32.0498 38.648 40.9084 37.7648 43.2098C37.3116 44.3813 36.9223 45.323 36.6417 45.9588C36.598 46.0615 36.568 46.1257 36.5473 46.1756C36.5795 46.1118 36.6012 46.0476 36.6012 46.0726C36.3643 46.6195 36.2239 46.9239 36.2239 46.9239V46.9347C36.0399 47.3428 35.8353 47.7155 35.7387 47.7155C35.6743 47.7155 35.5332 46.6464 35.7701 45.1834C36.2762 42.1047 37.4753 37.3199 37.4638 37.1534C37.4523 37.0645 37.6851 36.2366 36.6731 35.7925C35.691 35.3733 35.3409 36.0744 35.2535 36.0744C35.1661 36.0744 35.1008 36.3292 35.1008 36.3292C35.1008 36.3292 36.1861 30.9343 33.0073 30.9343C31.0223 30.9343 28.2614 33.5041 26.9067 35.8304C26.0557 36.3773 24.2118 37.563 22.2706 38.8234C21.5276 39.3064 20.7646 39.8019 20.0423 40.271C19.9894 40.2072 19.9448 40.1451 19.8896 40.0813C16.03 35.2204 8.90542 31.784 9.20673 25.2575C9.31484 22.8784 10.0187 16.6353 22.9085 9.05101C33.4751 2.8437 41.9221 4.54595 43.3757 8.3353C45.4665 13.7431 38.8575 23.8083 27.886 25.2575C23.7044 25.8043 21.778 23.672 21.2283 22.9585C20.6579 22.209 20.5685 22.1691 20.3523 22.3079C19.9958 22.5355 20.2235 23.1987 20.3523 23.5929C20.6766 24.5978 22.1179 26.1719 24.4134 27.063C26.4306 27.8403 31.0624 28.4928 36.9921 25.7834C43.6531 22.7547 48.7416 14.5273 47.2212 7.46778C46.2537 2.98267 41.9562 0.384709 36.5383 0.0395967ZM33.0028 34.117C33.1714 34.1321 33.2966 34.2072 33.3667 34.3502C33.7439 35.1025 32.0561 40.6404 31.6237 41.8868C30.9336 43.8856 29.4769 48.977 28.5913 48.7077C27.8369 48.4801 27.3713 44.5978 28.4386 40.7807C28.9768 38.8597 30.1207 36.5697 30.8016 35.6786C31.6175 34.6001 32.4971 34.072 33.0028 34.117ZM55.4063 40.3958C55.5328 40.8399 55.5993 41.3066 55.6085 41.773C55.597 44.6379 53.8629 45.7044 52.8187 46.1485C52.6025 45.9709 52.6311 45.3706 53.3533 43.5134C53.6339 42.7889 54.2839 41.5673 55.4063 40.3958ZM19.1933 43.5514C20.088 47.4185 19.2266 50.8298 17.1358 53.5171C15.1531 56.0738 12.3704 57.0415 11.1744 56.2281C9.89094 55.3481 10.3983 51.5802 12.8456 48.8541C14.3337 47.1996 16.2547 45.6745 17.5266 44.7334C17.8187 44.5307 18.2355 44.2242 18.753 43.855C18.8404 43.7912 18.8833 43.7683 18.8833 43.7683C18.9799 43.6933 19.0852 43.6291 19.1933 43.5514ZM46.2823 43.996C46.2823 44.0598 46.2958 44.1271 46.2958 44.202C46.282 46.4784 44.4242 48.0157 43.5824 48.6264H43.5914V48.6318C43.2993 48.8095 43.0283 48.9213 42.8995 48.8324C42.8029 48.7686 43.0208 48.5288 43.0208 48.5288C43.0208 48.5288 44.5187 46.6297 45.1098 45.7636C45.4548 45.2555 45.8522 44.6567 46.2823 43.996Z" fill="black"/>
</g>
<defs>
<filter id="filter0_d" x="17.4194" y="65.088" width="40.168" height="16.01" filterUnits="userSpaceOnUse" color-interpolation-filters="sRGB">
<feFlood flood-opacity="0" result="BackgroundImageFix"/>
<feColorMatrix in="SourceAlpha" type="matrix" values="0 0 0 0 0 0 0 0 0 0 0 0 0 0 0 0 0 0 127 0"/>
<feOffset dy="2"/>
<feGaussianBlur stdDeviation="1.5"/>
<feColorMatrix type="matrix" values="0 0 0 0 0 0 0 0 0 0 0 0 0 0 0 0 0 0 0.25 0"/>
<feBlend mode="normal" in2="BackgroundImageFix" result="effect1_dropShadow"/>
<feBlend mode="normal" in="SourceGraphic" in2="effect1_dropShadow" result="shape"/>
</filter>
<filter id="filter1_d" x="0" y="0" width="77" height="69" filterUnits="userSpaceOnUse" color-interpolation-filters="sRGB">
<feFlood flood-opacity="0" result="BackgroundImageFix"/>
<feColorMatrix in="SourceAlpha" type="matrix" values="0 0 0 0 0 0 0 0 0 0 0 0 0 0 0 0 0 0 127 0"/>
<feOffset dy="4"/>
<feGaussianBlur stdDeviation="2"/>
<feColorMatrix type="matrix" values="0 0 0 0 0 0 0 0 0 0 0 0 0 0 0 0 0 0 0.25 0"/>
<feBlend mode="normal" in2="BackgroundImageFix" result="effect1_dropShadow"/>
<feBlend mode="normal" in="SourceGraphic" in2="effect1_dropShadow" result="shape"/>
</filter>
</defs>
</svg>
